<?xml version="1.0" encoding="UTF-8" standalone="no"?>
<!DOCTYPE svg PUBLIC "-//W3C//DTD SVG 1.1//EN" "http://www.w3.org/Graphics/SVG/1.1/DTD/svg11.dtd">
<svg width="100%" height="100%" viewBox="0 0 1560 1063" version="1.1" xmlns="http://www.w3.org/2000/svg" xmlns:xlink="http://www.w3.org/1999/xlink" xml:space="preserve" xmlns:serif="http://www.serif.com/" style="fill-rule:evenodd;clip-rule:evenodd;">
    <g id="レイヤー-1" serif:id="レイヤー 1" transform="matrix(8.33333,0,0,8.33333,-486.49,-5645.4)">
        <g id="path4151" transform="matrix(0.81218,0,0,0.81218,37.9764,145.05)">
            <path d="M32,765.89L176,765.89" style="fill:none;stroke:black;stroke-width:2.4px;"/>
        </g>
        <g id="path4138" transform="matrix(1,0,0,1,4.92,1.2)">
            <path d="M84,793.89L84,745.89L116,745.89L116,793.89" style="fill:rgb(197,199,201);stroke:black;stroke-width:1.6px;"/>
        </g>
        <g id="rect4163" transform="matrix(1,0,0,1,4.92,1.2)">
            <rect x="83.2" y="736.29" width="8" height="8" style="fill:rgb(0,189,215);"/>
        </g>
        <g id="rect4163-1" transform="matrix(1,0,0,1,4.92,1.2)">
            <rect x="108.8" y="736.29" width="8" height="8" style="fill:rgb(0,189,215);"/>
        </g>
        <g id="path4180" transform="matrix(1,0,0,1,31.9661,1.2)">
            <path d="M32,769.89L36,765.89" style="fill:none;stroke:black;stroke-width:0.54px;"/>
        </g>
        <g id="path4182" transform="matrix(1,0,0,1,31.9661,1.2)">
            <path d="M32,773.89L40,765.89" style="fill:none;stroke:black;stroke-width:0.54px;"/>
        </g>
        <g id="path4184" transform="matrix(1,0,0,1,31.9661,1.2)">
            <path d="M32,777.89L44,765.89" style="fill:none;stroke:black;stroke-width:0.54px;"/>
        </g>
        <g id="path4186" transform="matrix(1,0,0,1,31.9661,1.2)">
            <path d="M36,777.89L48,765.89" style="fill:none;stroke:black;stroke-width:0.54px;"/>
        </g>
        <g id="path4188" transform="matrix(1,0,0,1,31.9661,1.2)">
            <path d="M40,777.89L48,769.89" style="fill:none;stroke:black;stroke-width:0.54px;"/>
        </g>
        <g id="path4190" transform="matrix(1,0,0,1,31.9661,1.2)">
            <path d="M44,777.89L48,773.89" style="fill:none;stroke:black;stroke-width:0.54px;"/>
        </g>
        <g id="rect4192" transform="matrix(1,0,0,1,4.92,1.2)">
            <rect x="94.4" y="680.29" width="12" height="24" style="fill:rgb(64,48,66);"/>
        </g>
        <g id="rect4192-9" transform="matrix(1,0,0,1,4.92,1.2)">
            <rect x="94.4" y="705.89" width="12" height="10.4" style="fill:rgb(64,48,66);"/>
        </g>
        <g id="rect4192-9-0" transform="matrix(1,0,0,1,4.92,1.2)">
            <rect x="95.2" y="703.49" width="10.4" height="2.4" style="fill:rgb(64,48,66);"/>
        </g>
        <g id="rect4192-9-0-1" transform="matrix(1,0,0,1,4.92,1.2)">
            <rect x="110.4" y="694.69" width="25.6" height="4" style="fill:rgb(64,48,66);"/>
        </g>
        <g id="path4245" transform="matrix(1,0,0,1,4.92,1.2)">
            <path d="M106.4,693.09L106.4,700.29L110.4,698.69L110.4,694.69L106.4,693.09Z" style="fill:rgb(64,48,66);"/>
        </g>
        <g id="rect4192-9-0-1-0" transform="matrix(1,0,0,1,4.92,1.2)">
            <rect x="141.6" y="693.09" width="32.8" height="8" style="fill:rgb(64,48,66);"/>
        </g>
        <g id="rect4192-9-0-1-0-8" transform="matrix(1,0,0,1,4.92,1.2)">
            <rect x="174.4" y="695.89" width="3.2" height="2.4" style="fill:rgb(64,48,66);"/>
        </g>
        <g id="path4277" transform="matrix(1,0,0,1,4.92,1.2)">
            <path d="M136,694.69L141.6,693.09L141.6,701.09L136,698.69L136,694.69" style="fill:rgb(64,48,66);"/>
        </g>
        <g id="path4279" transform="matrix(0,1,-1,0,801.856,733.49)">
            <path d="M32,733.89L26,737.354L26,730.426L32,733.89Z" style="fill-rule:nonzero;"/>
        </g>
        <g id="path4290" transform="matrix(0.12,0,0,0.12,23.5661,678.648)">
            <path d="M711.283,505.011L681.283,565.011L651.283,505.011L711.283,505.011Z" style="fill:rgb(64,48,66);"/>
            <path d="M681.283,337.011L681.283,517.011" style="fill:none;stroke:rgb(64,48,66);stroke-width:16.67px;"/>
        </g>
        <g id="path42901" serif:id="path4290" transform="matrix(0.12,0,0,0.12,23.5661,678.648)">
            <path d="M711.283,505.011L681.283,565.011L651.283,505.011L711.283,505.011Z" style="fill:rgb(64,48,66);"/>
            <path d="M681.283,337.011L681.283,517.011" style="fill:none;stroke:rgb(64,48,66);stroke-width:16.67px;"/>
        </g>
        <g id="path4834" transform="matrix(0.12,0,0,0.12,23.5661,678.648)">
            <path d="M1417.14,602.189L1454.64,620.939L1417.14,639.689C1426.52,630.314 1426.52,611.564 1417.14,602.189Z" style="fill:rgb(0,189,215);"/>
            <path d="M571.283,523.677L571.283,620.939L1424.64,620.939" style="fill:none;stroke:rgb(0,189,215);stroke-width:8.33px;"/>
        </g>
        <g id="path4836" transform="matrix(1,0,0,1,4.92,1.2)">
            <path d="M112.8,740.29L127.571,740.29L127.571,751.961" style="fill:none;stroke:rgb(0,189,215);stroke-width:1px;"/>
        </g>
        <g id="rect4838" transform="matrix(1,0,0,1,-3.84,1.2)">
            <rect x="144" y="748.29" width="20" height="7.2" style="fill:white;"/>
        </g>
        <g id="path4840" transform="matrix(1,0,0,1,-3.84,1.2)">
            <path d="M144,751.961L145.857,737.675L147.92,762.533L149.982,746.818L152.045,755.49L154.107,748.29L156.17,753.675L158.232,748.29L160.295,753.604L162.357,749.818L164,751.961" style="fill:none;stroke:rgb(0,189,215);stroke-width:1px;stroke-linecap:square;stroke-linejoin:round;"/>
        </g>
        <g id="path4842" transform="matrix(0.12,0,0,0.12,23.5661,678.648)">
            <path d="M1593.7,501.44L1574.95,538.94L1556.2,501.44C1565.57,510.815 1584.32,510.815 1593.7,501.44Z" style="fill:rgb(64,48,66);"/>
            <path d="M1324.62,163.677L1574.95,163.677L1574.95,247.677L1820.7,264.627L1574.95,281.011L1574.95,508.94" style="fill:none;stroke:rgb(64,48,66);stroke-width:8.33px;"/>
        </g>
        <g transform="matrix(8,0,0,8,101.086,775.272)">
            <g>
                <path d="M0.96,-0.122C0.957,-0.065 0.954,-0.028 0.95,-0.008C0.946,0.007 0.94,0.02 0.931,0.028C0.913,0.046 0.877,0.054 0.824,0.054C0.783,0.054 0.754,0.05 0.738,0.043C0.719,0.034 0.709,0.013 0.709,-0.02L0.709,-0.435L0.542,-0.435C0.543,-0.285 0.528,-0.175 0.499,-0.105C0.474,-0.046 0.429,0.007 0.365,0.054C0.357,0.06 0.352,0.063 0.35,0.063C0.348,0.063 0.344,0.059 0.337,0.051C0.327,0.039 0.315,0.03 0.301,0.022C0.351,-0.011 0.388,-0.043 0.412,-0.075C0.438,-0.11 0.457,-0.155 0.467,-0.209C0.477,-0.262 0.482,-0.336 0.482,-0.432L0.48,-0.484C0.48,-0.49 0.483,-0.492 0.488,-0.492L0.579,-0.49L0.671,-0.49L0.764,-0.492C0.769,-0.492 0.772,-0.49 0.772,-0.484L0.77,-0.361L0.77,-0.043C0.77,-0.023 0.773,-0.011 0.78,-0.008C0.788,-0.005 0.803,-0.003 0.827,-0.003C0.86,-0.003 0.88,-0.009 0.888,-0.02C0.897,-0.032 0.902,-0.082 0.903,-0.17C0.914,-0.16 0.928,-0.152 0.944,-0.146C0.955,-0.142 0.96,-0.137 0.96,-0.13L0.96,-0.122ZM0.405,-0.339C0.397,-0.33 0.389,-0.317 0.382,-0.3C0.379,-0.292 0.376,-0.288 0.374,-0.288C0.373,-0.288 0.369,-0.292 0.363,-0.3C0.314,-0.371 0.28,-0.438 0.262,-0.501C0.263,-0.368 0.264,-0.231 0.267,-0.09C0.268,-0.054 0.269,-0.015 0.27,0.028C0.271,0.05 0.271,0.061 0.271,0.063C0.271,0.068 0.268,0.071 0.263,0.071L0.216,0.071C0.211,0.071 0.208,0.068 0.208,0.063C0.208,0.062 0.208,0.043 0.209,0.006C0.215,-0.172 0.218,-0.338 0.219,-0.493C0.19,-0.38 0.146,-0.27 0.085,-0.163C0.08,-0.155 0.076,-0.151 0.074,-0.151C0.071,-0.151 0.069,-0.155 0.066,-0.163C0.059,-0.179 0.051,-0.192 0.042,-0.2C0.111,-0.304 0.165,-0.423 0.204,-0.559L0.166,-0.559L0.072,-0.557C0.067,-0.557 0.064,-0.56 0.064,-0.565L0.064,-0.604C0.064,-0.61 0.067,-0.613 0.072,-0.613L0.166,-0.611L0.211,-0.611L0.211,-0.71C0.211,-0.765 0.209,-0.805 0.204,-0.828C0.223,-0.827 0.244,-0.826 0.267,-0.823C0.274,-0.822 0.278,-0.819 0.278,-0.814C0.278,-0.809 0.276,-0.803 0.273,-0.795C0.27,-0.786 0.268,-0.758 0.268,-0.711L0.268,-0.611L0.281,-0.611L0.371,-0.613C0.376,-0.613 0.379,-0.61 0.379,-0.604L0.379,-0.565C0.379,-0.56 0.376,-0.557 0.371,-0.557L0.281,-0.559L0.272,-0.559C0.299,-0.481 0.343,-0.407 0.405,-0.339ZM0.944,-0.606C0.944,-0.601 0.941,-0.599 0.936,-0.599L0.799,-0.601L0.538,-0.601L0.402,-0.599C0.397,-0.599 0.394,-0.601 0.394,-0.606L0.394,-0.649C0.394,-0.654 0.397,-0.657 0.402,-0.657L0.538,-0.655L0.605,-0.655L0.605,-0.703C0.605,-0.758 0.603,-0.799 0.598,-0.826C0.622,-0.825 0.643,-0.823 0.663,-0.82C0.671,-0.819 0.675,-0.816 0.675,-0.811C0.675,-0.808 0.673,-0.802 0.67,-0.793C0.667,-0.784 0.665,-0.754 0.665,-0.705L0.665,-0.655L0.799,-0.655L0.936,-0.657C0.941,-0.657 0.944,-0.654 0.944,-0.649L0.944,-0.606Z" style="fill-rule:nonzero;"/>
            </g>
        </g>
        <g transform="matrix(0.12,0,0,0.12,-54.5944,635.276)">
            <g transform="matrix(66.6667,0,0,66.6667,988.004,1019.69)">
                <path d="M0.633,-0.048C0.56,-0.008 0.479,0.012 0.389,0.012C0.286,0.012 0.202,-0.021 0.138,-0.085C0.074,-0.149 0.042,-0.235 0.042,-0.341C0.042,-0.449 0.077,-0.538 0.147,-0.608C0.217,-0.677 0.306,-0.712 0.414,-0.712C0.492,-0.712 0.557,-0.701 0.61,-0.678L0.61,-0.558C0.557,-0.594 0.493,-0.612 0.418,-0.612C0.344,-0.612 0.283,-0.587 0.235,-0.538C0.187,-0.489 0.164,-0.425 0.164,-0.347C0.164,-0.267 0.184,-0.204 0.225,-0.157C0.266,-0.111 0.322,-0.088 0.392,-0.088C0.44,-0.088 0.482,-0.098 0.517,-0.116L0.517,-0.283L0.37,-0.283L0.37,-0.38L0.633,-0.38L0.633,-0.048Z" style="fill-rule:nonzero;"/>
            </g>
            <g transform="matrix(66.6667,0,0,66.6667,1034.49,1019.69)">
                <path d="M0.474,-0L0.086,-0L0.086,-0.7L0.203,-0.7L0.203,-0.098L0.474,-0.098L0.474,-0Z" style="fill-rule:nonzero;"/>
            </g>
        </g>
        <g transform="matrix(0.12,0,0,0.12,83.1888,629.634)">
            <g transform="matrix(58.3333,0,0,58.3333,988.004,1015.38)">
                <path d="M0.544,-0.433C0.541,-0.37 0.535,-0.318 0.526,-0.277C0.517,-0.238 0.503,-0.201 0.484,-0.167C0.442,-0.086 0.383,-0.024 0.307,0.021C0.298,0.026 0.292,0.029 0.287,0.029C0.283,0.029 0.279,0.027 0.276,0.024C0.264,0.013 0.246,0.002 0.22,-0.009C0.273,-0.037 0.315,-0.066 0.346,-0.096C0.374,-0.123 0.397,-0.155 0.416,-0.192C0.449,-0.253 0.466,-0.333 0.468,-0.433L0.264,-0.433C0.223,-0.433 0.175,-0.431 0.12,-0.427L0.117,-0.427C0.111,-0.427 0.108,-0.432 0.106,-0.442C0.104,-0.455 0.102,-0.475 0.1,-0.5C0.148,-0.497 0.203,-0.495 0.264,-0.495L0.697,-0.495C0.767,-0.495 0.827,-0.497 0.879,-0.5C0.886,-0.5 0.89,-0.495 0.89,-0.484L0.89,-0.442C0.89,-0.433 0.886,-0.429 0.877,-0.429C0.8,-0.432 0.74,-0.433 0.698,-0.433L0.544,-0.433ZM0.222,-0.721C0.271,-0.717 0.325,-0.716 0.383,-0.716L0.558,-0.716C0.635,-0.716 0.692,-0.717 0.727,-0.719L0.729,-0.719C0.735,-0.719 0.738,-0.714 0.738,-0.706C0.738,-0.699 0.739,-0.692 0.739,-0.686C0.739,-0.679 0.738,-0.672 0.738,-0.666C0.738,-0.657 0.734,-0.652 0.726,-0.652C0.69,-0.653 0.634,-0.654 0.558,-0.654L0.383,-0.654C0.331,-0.654 0.284,-0.653 0.24,-0.65L0.237,-0.65C0.231,-0.65 0.228,-0.654 0.227,-0.663C0.225,-0.681 0.223,-0.7 0.222,-0.721ZM0.747,-0.785L0.786,-0.809C0.787,-0.81 0.788,-0.81 0.789,-0.81C0.791,-0.81 0.793,-0.809 0.796,-0.807C0.828,-0.781 0.861,-0.737 0.894,-0.676C0.895,-0.674 0.895,-0.673 0.895,-0.672C0.895,-0.669 0.894,-0.667 0.891,-0.665L0.86,-0.644C0.858,-0.643 0.856,-0.642 0.854,-0.642C0.852,-0.642 0.849,-0.644 0.847,-0.647C0.818,-0.706 0.785,-0.752 0.747,-0.785ZM0.841,-0.84L0.875,-0.862C0.877,-0.863 0.879,-0.864 0.88,-0.864C0.882,-0.864 0.884,-0.863 0.886,-0.862C0.926,-0.828 0.958,-0.786 0.985,-0.735C0.986,-0.734 0.986,-0.732 0.986,-0.731C0.986,-0.729 0.985,-0.727 0.981,-0.724L0.952,-0.702C0.95,-0.701 0.948,-0.7 0.947,-0.7C0.945,-0.7 0.943,-0.701 0.941,-0.705C0.914,-0.758 0.88,-0.803 0.841,-0.84Z" style="fill-rule:nonzero;"/>
            </g>
            <g transform="matrix(58.3333,0,0,58.3333,1046.34,1015.38)">
                <path d="M0.118,-0.415C0.164,-0.409 0.238,-0.406 0.339,-0.406L0.646,-0.406C0.716,-0.406 0.789,-0.407 0.865,-0.409L0.87,-0.409C0.876,-0.409 0.88,-0.405 0.88,-0.397C0.881,-0.39 0.881,-0.382 0.881,-0.371C0.881,-0.361 0.881,-0.352 0.88,-0.345C0.88,-0.337 0.876,-0.333 0.87,-0.333L0.865,-0.333C0.815,-0.334 0.743,-0.335 0.649,-0.335L0.28,-0.335C0.24,-0.335 0.204,-0.333 0.172,-0.329C0.167,-0.328 0.161,-0.327 0.153,-0.326C0.149,-0.326 0.146,-0.325 0.145,-0.325C0.137,-0.325 0.131,-0.33 0.128,-0.339C0.124,-0.357 0.12,-0.382 0.118,-0.415Z" style="fill-rule:nonzero;"/>
            </g>
            <g transform="matrix(58.3333,0,0,58.3333,1104.67,1015.38)">
                <path d="M0.634,-0.3C0.681,-0.263 0.72,-0.227 0.754,-0.19C0.756,-0.188 0.757,-0.186 0.757,-0.184C0.757,-0.181 0.756,-0.178 0.753,-0.172C0.746,-0.161 0.735,-0.149 0.72,-0.138C0.717,-0.136 0.714,-0.134 0.711,-0.134C0.709,-0.134 0.707,-0.136 0.704,-0.139C0.67,-0.179 0.633,-0.215 0.592,-0.25C0.498,-0.142 0.382,-0.051 0.245,0.023C0.239,0.027 0.234,0.029 0.23,0.029C0.226,0.029 0.222,0.027 0.218,0.022C0.204,0.01 0.185,-0 0.162,-0.009C0.317,-0.087 0.442,-0.181 0.538,-0.291C0.496,-0.324 0.444,-0.358 0.381,-0.393C0.393,-0.409 0.405,-0.422 0.416,-0.432C0.42,-0.436 0.423,-0.438 0.425,-0.438C0.427,-0.438 0.429,-0.437 0.432,-0.436C0.471,-0.416 0.521,-0.384 0.581,-0.341C0.642,-0.418 0.69,-0.501 0.727,-0.59L0.432,-0.584C0.367,-0.496 0.294,-0.418 0.214,-0.353C0.208,-0.348 0.203,-0.345 0.199,-0.345C0.195,-0.345 0.192,-0.347 0.188,-0.35C0.176,-0.36 0.16,-0.369 0.14,-0.377C0.263,-0.471 0.358,-0.577 0.424,-0.694C0.442,-0.728 0.456,-0.76 0.464,-0.793C0.488,-0.786 0.511,-0.775 0.535,-0.759C0.54,-0.756 0.542,-0.751 0.542,-0.747C0.542,-0.741 0.539,-0.736 0.533,-0.731C0.522,-0.723 0.512,-0.712 0.504,-0.697C0.494,-0.681 0.483,-0.664 0.47,-0.646L0.698,-0.649C0.726,-0.65 0.744,-0.654 0.751,-0.661C0.756,-0.665 0.761,-0.667 0.765,-0.667C0.769,-0.667 0.773,-0.666 0.778,-0.663C0.791,-0.655 0.805,-0.642 0.821,-0.623C0.825,-0.619 0.826,-0.615 0.826,-0.611C0.826,-0.606 0.823,-0.601 0.817,-0.596C0.807,-0.588 0.799,-0.578 0.793,-0.565C0.748,-0.468 0.695,-0.38 0.634,-0.3Z" style="fill-rule:nonzero;"/>
            </g>
            <g transform="matrix(58.3333,0,0,58.3333,988.004,1082.04)">
                <path d="M0.969,-0.041C0.96,-0.028 0.954,-0.013 0.951,0.005C0.949,0.016 0.947,0.022 0.944,0.024C0.942,0.026 0.937,0.027 0.927,0.027C0.879,0.031 0.811,0.032 0.722,0.032C0.566,0.032 0.445,-0.007 0.36,-0.087C0.334,-0.11 0.313,-0.134 0.297,-0.158C0.249,-0.082 0.185,-0.012 0.104,0.053C0.097,0.058 0.091,0.061 0.089,0.061C0.086,0.061 0.082,0.056 0.076,0.047C0.067,0.034 0.057,0.023 0.045,0.015C0.136,-0.049 0.209,-0.126 0.263,-0.214C0.228,-0.279 0.201,-0.362 0.184,-0.463C0.162,-0.413 0.132,-0.361 0.096,-0.307C0.09,-0.299 0.087,-0.296 0.085,-0.296C0.082,-0.296 0.079,-0.299 0.075,-0.307C0.066,-0.321 0.056,-0.333 0.045,-0.342C0.095,-0.408 0.135,-0.481 0.164,-0.563C0.183,-0.617 0.199,-0.68 0.213,-0.754C0.218,-0.781 0.22,-0.803 0.22,-0.82L0.22,-0.83C0.242,-0.826 0.262,-0.822 0.28,-0.817C0.288,-0.815 0.292,-0.811 0.292,-0.805C0.292,-0.801 0.29,-0.797 0.286,-0.792C0.28,-0.783 0.275,-0.769 0.271,-0.749C0.263,-0.71 0.256,-0.678 0.249,-0.651L0.365,-0.651C0.38,-0.651 0.391,-0.652 0.396,-0.655C0.403,-0.658 0.407,-0.66 0.409,-0.66C0.414,-0.66 0.423,-0.653 0.436,-0.641C0.448,-0.63 0.454,-0.621 0.454,-0.616C0.454,-0.611 0.452,-0.607 0.449,-0.603C0.445,-0.598 0.442,-0.584 0.439,-0.563C0.417,-0.423 0.38,-0.304 0.327,-0.207C0.343,-0.182 0.361,-0.161 0.381,-0.143C0.429,-0.097 0.485,-0.066 0.55,-0.048C0.599,-0.035 0.661,-0.029 0.735,-0.029C0.822,-0.029 0.9,-0.033 0.969,-0.041ZM0.383,-0.597L0.234,-0.597L0.219,-0.551C0.237,-0.429 0.261,-0.335 0.293,-0.268C0.34,-0.361 0.37,-0.471 0.383,-0.597ZM0.956,-0.325C0.953,-0.268 0.949,-0.227 0.943,-0.205C0.939,-0.188 0.933,-0.176 0.924,-0.168C0.907,-0.154 0.882,-0.147 0.847,-0.147C0.808,-0.147 0.783,-0.15 0.771,-0.157C0.753,-0.167 0.744,-0.191 0.744,-0.229L0.744,-0.708L0.612,-0.708C0.612,-0.545 0.604,-0.427 0.588,-0.354C0.571,-0.276 0.538,-0.209 0.49,-0.153C0.484,-0.146 0.479,-0.142 0.478,-0.142C0.474,-0.142 0.469,-0.145 0.463,-0.152C0.451,-0.163 0.438,-0.171 0.426,-0.176C0.481,-0.232 0.517,-0.304 0.534,-0.389C0.546,-0.454 0.553,-0.556 0.553,-0.695L0.551,-0.756C0.551,-0.761 0.553,-0.764 0.559,-0.764L0.64,-0.762L0.714,-0.762L0.796,-0.764C0.801,-0.764 0.804,-0.761 0.804,-0.756L0.802,-0.622L0.802,-0.245C0.802,-0.223 0.804,-0.211 0.81,-0.207C0.816,-0.203 0.827,-0.201 0.845,-0.201C0.865,-0.201 0.879,-0.207 0.888,-0.217C0.897,-0.23 0.902,-0.281 0.903,-0.372C0.913,-0.364 0.926,-0.357 0.942,-0.351C0.951,-0.347 0.956,-0.342 0.956,-0.335L0.956,-0.325Z" style="fill-rule:nonzero;"/>
            </g>
            <g transform="matrix(58.3333,0,0,58.3333,1046.34,1082.04)">
                <path d="M0.962,0.012C0.962,0.017 0.96,0.02 0.956,0.02L0.813,0.018L0.447,0.018L0.305,0.02C0.3,0.02 0.297,0.017 0.297,0.012L0.297,-0.032C0.297,-0.037 0.3,-0.04 0.305,-0.04L0.447,-0.038L0.618,-0.038L0.618,-0.168L0.542,-0.168L0.41,-0.166C0.405,-0.166 0.402,-0.169 0.402,-0.174L0.402,-0.217C0.402,-0.222 0.405,-0.225 0.41,-0.225L0.542,-0.223L0.618,-0.223L0.618,-0.337L0.542,-0.337L0.41,-0.335C0.404,-0.335 0.401,-0.337 0.401,-0.342L0.403,-0.452L0.403,-0.654L0.401,-0.762C0.401,-0.767 0.404,-0.77 0.41,-0.77L0.542,-0.768L0.763,-0.768L0.895,-0.77C0.9,-0.77 0.902,-0.767 0.902,-0.762L0.9,-0.654L0.9,-0.452L0.902,-0.342C0.902,-0.337 0.9,-0.335 0.895,-0.335L0.763,-0.337L0.676,-0.337L0.676,-0.223L0.77,-0.223L0.9,-0.225C0.906,-0.225 0.908,-0.222 0.908,-0.217L0.908,-0.174C0.908,-0.169 0.906,-0.166 0.9,-0.166L0.77,-0.168L0.676,-0.168L0.676,-0.038L0.813,-0.038L0.956,-0.04C0.96,-0.04 0.962,-0.037 0.962,-0.032L0.962,0.012ZM0.842,-0.389L0.842,-0.53L0.676,-0.53L0.676,-0.389L0.842,-0.389ZM0.842,-0.58L0.842,-0.716L0.676,-0.716L0.676,-0.58L0.842,-0.58ZM0.618,-0.389L0.618,-0.53L0.46,-0.53L0.46,-0.389L0.618,-0.389ZM0.618,-0.58L0.618,-0.716L0.46,-0.716L0.46,-0.58L0.618,-0.58ZM0.374,-0.269C0.372,-0.258 0.371,-0.246 0.371,-0.231C0.371,-0.226 0.372,-0.223 0.372,-0.221C0.372,-0.213 0.366,-0.206 0.355,-0.2C0.291,-0.164 0.216,-0.129 0.132,-0.096C0.112,-0.088 0.1,-0.083 0.096,-0.08C0.091,-0.076 0.086,-0.074 0.083,-0.074C0.079,-0.074 0.075,-0.077 0.073,-0.083C0.066,-0.1 0.06,-0.119 0.055,-0.14C0.081,-0.144 0.111,-0.152 0.147,-0.165L0.19,-0.181L0.19,-0.431L0.174,-0.431L0.085,-0.429C0.08,-0.429 0.077,-0.431 0.077,-0.437L0.077,-0.479C0.077,-0.484 0.08,-0.487 0.085,-0.487L0.174,-0.485L0.19,-0.485L0.19,-0.699L0.167,-0.699L0.07,-0.697C0.065,-0.697 0.063,-0.7 0.063,-0.705L0.063,-0.748C0.063,-0.753 0.065,-0.756 0.07,-0.756L0.167,-0.754L0.269,-0.754L0.365,-0.756C0.37,-0.756 0.373,-0.753 0.373,-0.748L0.373,-0.705C0.373,-0.7 0.37,-0.697 0.365,-0.697L0.269,-0.699L0.249,-0.699L0.249,-0.485L0.26,-0.485L0.35,-0.487C0.355,-0.487 0.357,-0.484 0.357,-0.479L0.357,-0.437C0.357,-0.431 0.355,-0.429 0.35,-0.429L0.26,-0.431L0.249,-0.431L0.249,-0.206C0.29,-0.224 0.332,-0.245 0.374,-0.269Z" style="fill-rule:nonzero;"/>
            </g>
        </g>
        <g id="rect48381" serif:id="rect4838" transform="matrix(1,0,0,1.44265,58.304,-358.715)">
            <rect x="144" y="748.29" width="20" height="7.2" style="fill:white;"/>
        </g>
        <g id="rect48382" serif:id="rect4838" transform="matrix(0.929696,0,0,1.44265,34.4037,-332.071)">
            <rect x="144" y="748.29" width="20" height="7.2" style="fill:white;"/>
        </g>
        <g transform="matrix(0.12,0,0,0.12,85.5908,606.454)">
            <g transform="matrix(66.6667,0,0,66.6667,988.004,1021.81)">
                <path d="M0.646,-0.099C0.646,-0.093 0.643,-0.091 0.637,-0.091L0.598,-0.091C0.593,-0.091 0.59,-0.093 0.59,-0.099L0.59,-0.131L0.424,-0.131L0.424,-0.08C0.424,-0.075 0.422,-0.072 0.417,-0.072L0.376,-0.072C0.371,-0.072 0.368,-0.075 0.368,-0.08L0.37,-0.229L0.37,-0.293L0.368,-0.383C0.368,-0.388 0.371,-0.391 0.376,-0.391L0.465,-0.389L0.548,-0.389L0.638,-0.391C0.643,-0.391 0.646,-0.388 0.646,-0.383L0.644,-0.309L0.644,-0.242L0.646,-0.099ZM0.59,-0.181L0.59,-0.339L0.424,-0.339L0.424,-0.181L0.59,-0.181ZM0.939,-0.5C0.939,-0.494 0.937,-0.492 0.931,-0.492L0.917,-0.492C0.889,-0.493 0.856,-0.493 0.819,-0.494L0.819,-0.17L0.82,-0.031C0.82,0.005 0.812,0.029 0.796,0.043C0.784,0.052 0.77,0.058 0.753,0.061C0.737,0.063 0.712,0.065 0.679,0.065L0.661,0.065C0.651,0.065 0.644,0.064 0.642,0.062C0.64,0.06 0.639,0.054 0.637,0.045C0.633,0.027 0.627,0.013 0.619,0.001C0.649,0.004 0.676,0.006 0.701,0.006C0.724,0.006 0.74,0.002 0.748,-0.006C0.755,-0.013 0.758,-0.024 0.758,-0.04L0.758,-0.494L0.49,-0.494L0.35,-0.492C0.346,-0.492 0.343,-0.494 0.343,-0.5L0.343,-0.54C0.343,-0.546 0.346,-0.549 0.35,-0.549L0.49,-0.547L0.793,-0.547L0.931,-0.549C0.937,-0.549 0.939,-0.546 0.939,-0.54L0.939,-0.5ZM0.935,-0.694C0.935,-0.689 0.933,-0.686 0.928,-0.686L0.797,-0.688L0.659,-0.688L0.661,-0.619C0.661,-0.614 0.659,-0.611 0.653,-0.611L0.609,-0.611C0.604,-0.611 0.601,-0.614 0.601,-0.619L0.603,-0.688L0.394,-0.688L0.396,-0.619C0.396,-0.614 0.393,-0.611 0.388,-0.611L0.344,-0.611C0.339,-0.611 0.336,-0.614 0.336,-0.619L0.338,-0.688L0.203,-0.688L0.073,-0.686C0.068,-0.686 0.065,-0.689 0.065,-0.694L0.065,-0.736C0.065,-0.742 0.068,-0.744 0.073,-0.744L0.203,-0.742L0.338,-0.742C0.337,-0.787 0.335,-0.817 0.331,-0.833C0.351,-0.832 0.372,-0.83 0.393,-0.828C0.401,-0.827 0.404,-0.824 0.404,-0.819C0.404,-0.815 0.403,-0.81 0.4,-0.806C0.396,-0.799 0.394,-0.778 0.394,-0.742L0.603,-0.742C0.603,-0.785 0.601,-0.815 0.597,-0.833C0.625,-0.832 0.646,-0.83 0.658,-0.829C0.665,-0.828 0.669,-0.825 0.669,-0.82C0.669,-0.816 0.668,-0.811 0.665,-0.806C0.661,-0.799 0.659,-0.778 0.659,-0.742L0.797,-0.742L0.928,-0.744C0.933,-0.744 0.935,-0.742 0.935,-0.736L0.935,-0.694ZM0.329,-0.584C0.329,-0.58 0.326,-0.576 0.32,-0.571C0.316,-0.567 0.31,-0.558 0.302,-0.543C0.287,-0.512 0.268,-0.477 0.245,-0.44L0.245,-0.067L0.247,0.064C0.247,0.069 0.244,0.071 0.239,0.071L0.191,0.071C0.186,0.071 0.183,0.069 0.183,0.064L0.185,-0.067L0.185,-0.237C0.185,-0.24 0.186,-0.281 0.188,-0.361C0.155,-0.319 0.122,-0.284 0.088,-0.254C0.081,-0.248 0.076,-0.245 0.074,-0.245C0.071,-0.245 0.067,-0.249 0.062,-0.257C0.054,-0.272 0.045,-0.283 0.036,-0.29C0.126,-0.358 0.197,-0.45 0.249,-0.565C0.257,-0.584 0.263,-0.602 0.265,-0.618C0.288,-0.609 0.305,-0.602 0.317,-0.596C0.325,-0.592 0.329,-0.588 0.329,-0.584Z" style="fill:rgb(64,48,66);fill-rule:nonzero;"/>
            </g>
            <g transform="matrix(66.6667,0,0,66.6667,1054.67,1021.81)">
                <path d="M0.94,0.026C0.94,0.032 0.938,0.034 0.933,0.034L0.803,0.032L0.2,0.032L0.071,0.034C0.066,0.034 0.063,0.032 0.063,0.026L0.063,-0.011C0.063,-0.016 0.066,-0.019 0.071,-0.019L0.2,-0.017L0.462,-0.017L0.462,-0.096L0.287,-0.096L0.147,-0.094C0.141,-0.094 0.139,-0.097 0.139,-0.102L0.139,-0.136C0.139,-0.141 0.141,-0.144 0.147,-0.144L0.287,-0.142L0.462,-0.142L0.462,-0.216L0.34,-0.216L0.198,-0.214C0.193,-0.214 0.19,-0.216 0.19,-0.222L0.192,-0.312L0.192,-0.432L0.19,-0.521C0.19,-0.526 0.193,-0.529 0.198,-0.529L0.34,-0.527L0.462,-0.527L0.462,-0.595L0.199,-0.595L0.07,-0.593C0.065,-0.593 0.062,-0.596 0.062,-0.601L0.062,-0.638C0.062,-0.643 0.065,-0.646 0.07,-0.646L0.199,-0.644L0.462,-0.644L0.462,-0.726C0.383,-0.72 0.289,-0.714 0.179,-0.709C0.171,-0.709 0.166,-0.71 0.164,-0.712C0.162,-0.714 0.159,-0.719 0.156,-0.727C0.15,-0.742 0.143,-0.753 0.136,-0.761C0.254,-0.762 0.362,-0.767 0.46,-0.775C0.562,-0.783 0.644,-0.794 0.707,-0.806C0.731,-0.811 0.753,-0.817 0.773,-0.824C0.79,-0.813 0.804,-0.801 0.816,-0.789C0.821,-0.785 0.823,-0.78 0.823,-0.777C0.823,-0.77 0.819,-0.767 0.81,-0.767C0.798,-0.767 0.783,-0.765 0.765,-0.762C0.703,-0.75 0.621,-0.74 0.52,-0.73L0.52,-0.644L0.802,-0.644L0.932,-0.646C0.937,-0.646 0.939,-0.643 0.939,-0.638L0.939,-0.601C0.939,-0.596 0.937,-0.593 0.932,-0.593L0.802,-0.595L0.52,-0.595L0.52,-0.527L0.662,-0.527L0.803,-0.529C0.808,-0.529 0.811,-0.526 0.811,-0.521L0.809,-0.432L0.809,-0.312L0.811,-0.222C0.811,-0.216 0.808,-0.214 0.803,-0.214L0.662,-0.216L0.52,-0.216L0.52,-0.142L0.716,-0.142L0.856,-0.144C0.862,-0.144 0.865,-0.141 0.865,-0.136L0.865,-0.102C0.865,-0.097 0.862,-0.094 0.856,-0.094L0.716,-0.096L0.52,-0.096L0.52,-0.017L0.803,-0.017L0.933,-0.019C0.938,-0.019 0.94,-0.016 0.94,-0.011L0.94,0.026ZM0.751,-0.261L0.751,-0.351L0.52,-0.351L0.52,-0.261L0.751,-0.261ZM0.751,-0.395L0.751,-0.481L0.52,-0.481L0.52,-0.395L0.751,-0.395ZM0.462,-0.261L0.462,-0.351L0.249,-0.351L0.249,-0.261L0.462,-0.261ZM0.462,-0.395L0.462,-0.481L0.249,-0.481L0.249,-0.395L0.462,-0.395Z" style="fill:rgb(64,48,66);fill-rule:nonzero;"/>
            </g>
        </g>
        <g transform="matrix(0.12,0,0,0.12,51.2606,632.701)">
            <g transform="matrix(66.6667,0,0,66.6667,988.004,1021.81)">
                <path d="M0.958,0.004C0.949,0.013 0.941,0.027 0.932,0.046C0.928,0.058 0.922,0.064 0.917,0.064C0.915,0.064 0.911,0.064 0.905,0.063C0.741,0.039 0.606,-0.002 0.501,-0.061C0.403,-0.003 0.277,0.04 0.123,0.067C0.117,0.068 0.113,0.068 0.111,0.068C0.105,0.068 0.1,0.062 0.094,0.051C0.088,0.039 0.08,0.028 0.071,0.019C0.228,-0.005 0.354,-0.042 0.448,-0.094C0.402,-0.126 0.36,-0.164 0.322,-0.208C0.27,-0.161 0.209,-0.12 0.14,-0.085C0.131,-0.081 0.126,-0.079 0.125,-0.079C0.121,-0.079 0.117,-0.084 0.111,-0.093C0.104,-0.104 0.095,-0.113 0.083,-0.121C0.218,-0.181 0.32,-0.263 0.391,-0.366C0.398,-0.376 0.403,-0.387 0.408,-0.401C0.426,-0.397 0.444,-0.39 0.461,-0.382C0.467,-0.379 0.47,-0.375 0.47,-0.371C0.47,-0.366 0.466,-0.361 0.458,-0.358C0.455,-0.357 0.448,-0.348 0.436,-0.333C0.43,-0.324 0.419,-0.311 0.404,-0.293L0.655,-0.293C0.664,-0.293 0.671,-0.294 0.675,-0.296C0.681,-0.299 0.684,-0.3 0.685,-0.3C0.691,-0.3 0.701,-0.292 0.713,-0.278C0.724,-0.265 0.729,-0.256 0.729,-0.252C0.729,-0.247 0.725,-0.243 0.718,-0.239C0.713,-0.236 0.704,-0.229 0.692,-0.217C0.645,-0.168 0.599,-0.128 0.553,-0.095C0.611,-0.066 0.68,-0.043 0.757,-0.026C0.81,-0.015 0.877,-0.005 0.958,0.004ZM0.643,-0.247L0.363,-0.247L0.358,-0.241C0.403,-0.193 0.45,-0.155 0.499,-0.125C0.551,-0.159 0.599,-0.2 0.643,-0.247ZM0.926,-0.664C0.926,-0.658 0.924,-0.656 0.918,-0.656L0.786,-0.658L0.637,-0.658L0.637,-0.546L0.638,-0.446C0.638,-0.415 0.628,-0.393 0.608,-0.382C0.591,-0.374 0.562,-0.369 0.521,-0.369C0.511,-0.369 0.504,-0.369 0.502,-0.371C0.501,-0.373 0.498,-0.378 0.495,-0.388C0.491,-0.402 0.484,-0.414 0.476,-0.426C0.5,-0.423 0.519,-0.422 0.534,-0.422C0.552,-0.422 0.565,-0.425 0.571,-0.433C0.576,-0.438 0.579,-0.449 0.579,-0.463L0.579,-0.658L0.446,-0.658C0.444,-0.568 0.426,-0.499 0.395,-0.45C0.368,-0.409 0.324,-0.373 0.263,-0.341C0.254,-0.337 0.248,-0.334 0.247,-0.334C0.245,-0.334 0.24,-0.339 0.232,-0.347C0.223,-0.357 0.212,-0.365 0.199,-0.371C0.271,-0.403 0.32,-0.44 0.346,-0.481C0.372,-0.522 0.385,-0.581 0.387,-0.658L0.217,-0.658L0.084,-0.656C0.079,-0.656 0.076,-0.658 0.076,-0.664L0.076,-0.707C0.076,-0.712 0.079,-0.714 0.084,-0.714L0.217,-0.712L0.466,-0.712L0.466,-0.733C0.466,-0.778 0.464,-0.812 0.459,-0.834C0.49,-0.833 0.512,-0.831 0.525,-0.829C0.533,-0.828 0.537,-0.825 0.537,-0.821C0.537,-0.818 0.535,-0.812 0.531,-0.803C0.528,-0.795 0.526,-0.771 0.526,-0.733L0.526,-0.712L0.786,-0.712L0.918,-0.714C0.924,-0.714 0.926,-0.712 0.926,-0.707L0.926,-0.664ZM0.294,-0.568C0.294,-0.563 0.29,-0.558 0.283,-0.553C0.278,-0.55 0.271,-0.541 0.26,-0.525C0.22,-0.468 0.174,-0.421 0.122,-0.384C0.115,-0.378 0.11,-0.375 0.106,-0.375C0.103,-0.375 0.098,-0.379 0.09,-0.388C0.082,-0.397 0.072,-0.404 0.06,-0.411C0.123,-0.448 0.173,-0.495 0.21,-0.553C0.22,-0.569 0.228,-0.586 0.232,-0.603C0.251,-0.597 0.268,-0.589 0.284,-0.579C0.291,-0.575 0.294,-0.571 0.294,-0.568ZM0.907,-0.425C0.909,-0.422 0.91,-0.42 0.91,-0.419C0.91,-0.417 0.906,-0.414 0.899,-0.409L0.874,-0.391C0.87,-0.389 0.867,-0.387 0.865,-0.387C0.862,-0.387 0.858,-0.391 0.853,-0.398C0.814,-0.466 0.769,-0.523 0.716,-0.569C0.714,-0.571 0.712,-0.573 0.712,-0.574C0.712,-0.576 0.715,-0.579 0.721,-0.583L0.743,-0.598C0.748,-0.601 0.751,-0.603 0.753,-0.603C0.755,-0.603 0.758,-0.602 0.761,-0.599C0.819,-0.551 0.868,-0.493 0.907,-0.425Z" style="fill:rgb(0,189,215);fill-rule:nonzero;"/>
            </g>
            <g transform="matrix(66.6667,0,0,66.6667,1054.67,1021.81)">
                <path d="M0.323,-0.795C0.323,-0.79 0.32,-0.786 0.313,-0.782C0.308,-0.778 0.301,-0.765 0.293,-0.744C0.277,-0.699 0.254,-0.649 0.227,-0.594L0.227,-0.094L0.229,0.062C0.229,0.067 0.226,0.07 0.221,0.07L0.172,0.07C0.167,0.07 0.165,0.067 0.165,0.062L0.167,-0.094L0.167,-0.348C0.167,-0.38 0.167,-0.428 0.168,-0.492C0.141,-0.448 0.11,-0.406 0.075,-0.365C0.07,-0.358 0.066,-0.355 0.064,-0.355C0.063,-0.355 0.059,-0.359 0.055,-0.366C0.047,-0.384 0.039,-0.397 0.03,-0.405C0.123,-0.511 0.191,-0.629 0.234,-0.758C0.244,-0.785 0.25,-0.808 0.25,-0.828C0.276,-0.821 0.296,-0.813 0.312,-0.806C0.319,-0.803 0.323,-0.799 0.323,-0.795ZM0.954,0.008C0.954,0.014 0.951,0.016 0.946,0.016L0.805,0.014L0.443,0.014L0.301,0.016C0.296,0.016 0.293,0.014 0.293,0.008L0.293,-0.036C0.293,-0.041 0.296,-0.044 0.301,-0.044L0.443,-0.042L0.643,-0.042C0.685,-0.161 0.717,-0.274 0.739,-0.38C0.748,-0.421 0.753,-0.456 0.754,-0.483C0.78,-0.478 0.802,-0.472 0.822,-0.464C0.83,-0.461 0.833,-0.458 0.833,-0.453C0.833,-0.451 0.831,-0.446 0.825,-0.438C0.818,-0.428 0.812,-0.413 0.808,-0.392C0.778,-0.267 0.743,-0.15 0.705,-0.042L0.805,-0.042L0.946,-0.044C0.951,-0.044 0.954,-0.041 0.954,-0.036L0.954,0.008ZM0.923,-0.561C0.923,-0.555 0.92,-0.553 0.914,-0.553L0.775,-0.555L0.47,-0.555L0.332,-0.553C0.326,-0.553 0.324,-0.555 0.324,-0.561L0.324,-0.605C0.324,-0.61 0.326,-0.613 0.332,-0.613L0.47,-0.611L0.575,-0.611L0.575,-0.708C0.575,-0.758 0.572,-0.792 0.568,-0.81C0.596,-0.809 0.618,-0.807 0.635,-0.804C0.644,-0.803 0.648,-0.8 0.648,-0.795C0.648,-0.791 0.647,-0.786 0.643,-0.779C0.639,-0.768 0.636,-0.746 0.636,-0.715L0.636,-0.611L0.775,-0.611L0.914,-0.613C0.92,-0.613 0.923,-0.61 0.923,-0.605L0.923,-0.561ZM0.534,-0.137C0.535,-0.135 0.535,-0.133 0.535,-0.131C0.535,-0.127 0.531,-0.123 0.524,-0.12L0.492,-0.107C0.487,-0.105 0.483,-0.104 0.481,-0.104C0.478,-0.104 0.475,-0.107 0.474,-0.114C0.451,-0.24 0.423,-0.352 0.389,-0.451L0.389,-0.456C0.389,-0.458 0.393,-0.461 0.401,-0.464L0.432,-0.474C0.436,-0.475 0.438,-0.476 0.44,-0.476C0.443,-0.476 0.445,-0.474 0.447,-0.469C0.481,-0.371 0.51,-0.261 0.534,-0.137Z" style="fill:rgb(0,189,215);fill-rule:nonzero;"/>
            </g>
        </g>
    </g>
    <g transform="matrix(8.33333,0,0,13.4092,-368.8,-822.963)">
        <g id="text">
            <g id="rect5054">
                <rect x="184" y="102.425" width="28.8" height="12" style="fill:none;stroke:black;stroke-width:0.6px;stroke-linecap:square;stroke-linejoin:round;"/>
            </g>
        </g>
    </g>
</svg>
